PathFileType	4	(X/Y/Z)	C:/Users/opensim2020/Desktop/walking_exp_matlab/subject03_walking10_straight_01.trc	
DataRate	CameraRate	NumFrames	NumMarkers	Units	OrigDataRate	OrigDataStartFrame	OrigNumFrames	
100.00	100.00	6	45	mm	100.00	1076	477	
Frame#	Time	LFHD			RFHD			LBHD			RBHD			C7			T10			CLAV			STRN			RBAK			LSHO			LUPA			LELB			LFRM			LWRA			LWRB			LFIN			RSHO			RUPA			RELB			RFRM			RWRA			RWRB			RFIN			LASI			RASI			LPSI			RPSI			LTHI			LKNE			LTIB			LANK			LHEE			LTOE			RTHI			RKNE			RTIB			RANK			RHEE			RTOE			*39			*40			*41			*42			*43			*44			
		X1	Y1	Z1	X2	Y2	Z2	X3	Y3	Z3	X4	Y4	Z4	X5	Y5	Z5	X6	Y6	Z6	X7	Y7	Z7	X8	Y8	Z8	X9	Y9	Z9	X10	Y10	Z10	X11	Y11	Z11	X12	Y12	Z12	X13	Y13	Z13	X14	Y14	Z14	X15	Y15	Z15	X16	Y16	Z16	X17	Y17	Z17	X18	Y18	Z18	X19	Y19	Z19	X20	Y20	Z20	X21	Y21	Z21	X22	Y22	Z22	X23	Y23	Z23	X24	Y24	Z24	X25	Y25	Z25	X26	Y26	Z26	X27	Y27	Z27	X28	Y28	Z28	X29	Y29	Z29	X30	Y30	Z30	X31	Y31	Z31	X32	Y32	Z32	X33	Y33	Z33	X34	Y34	Z34	X35	Y35	Z35	X36	Y36	Z36	X37	Y37	Z37	X38	Y38	Z38	X39	Y39	Z39	X40	Y40	Z40	X41	Y41	Z41	X42	Y42	Z42	X43	Y43	Z43	X44	Y44	Z44	X45	Y45	Z45	

418	4.170	1366.38867	1125.30396	1608.43921	1499.43018	1120.04517	1619.85925	1365.65979	991.28693	1591.21399	1496.09924	990.39899	1600.98999	1424.01318	936.10645	1427.93665	1417.16406	899.43292	1111.30908	1433.51965	1053.30188	1347.32910	1431.36633	1097.05603	1183.59448	1514.05298	871.05530	1249.39978	1275.40979	1021.68231	1384.78320	1200.39185	1035.31689	1190.12976	1187.00598	1057.03931	1069.27234	1189.23816	1098.87549	946.04291	1220.28589	1126.06750	830.39508	1165.77979	1112.88953	834.98328	1175.73706	1137.94629	754.59613	1589.42151	996.13641	1371.31653	1661.52759	989.19287	1147.81421	1675.91650	1000.99158	1035.98499	1681.64819	1011.67773	899.50433	1649.32092	1038.50293	801.50085	1692.11157	1004.93524	799.29810	1683.66345	1022.07251	725.57965	1312.38220	1072.05566	946.22461	1549.36194	1054.51941	948.63226	1351.45874	906.90759	973.44507	1499.55420	896.83136	977.42517	1281.56677	1009.70496	643.69446	1326.43286	1007.46381	467.14407	1328.33789	955.38898	279.21478	1375.66614	934.62567	71.67048	1413.20923	894.95178	37.75732	1386.44336	1087.23352	35.72463	1601.25537	1053.43140	657.40778	1582.01904	1114.72119	487.23938	1583.83362	1012.38293	323.95200	1541.28577	907.61560	134.68622	1485.96216	858.28448	117.30594	1538.22375	1019.93176	49.40125	1410.89990	1054.78003	1685.58081															 
419	4.180	1366.43555	1131.10193	1608.47388	1499.16699	1125.65503	1619.62427	1365.69360	997.16144	1590.95105	1496.12500	996.21320	1600.57434	1423.62891	942.26965	1427.68237	1416.61658	905.55615	1111.39258	1433.31116	1059.45715	1347.10547	1430.74023	1103.17236	1183.33044	1513.17639	876.94739	1248.90259	1275.34473	1028.28235	1384.93958	1199.61829	1043.10193	1190.64697	1185.87891	1066.12463	1070.13660	1188.43591	1110.14099	947.64740	1219.62561	1139.97278	832.62384	1165.16687	1125.99536	836.74725	1175.23010	1152.58118	756.88617	1589.14978	1001.91168	1370.68689	1661.27051	994.22046	1147.27124	1675.64417	1005.66937	1035.35229	1681.34277	1016.63190	898.98492	1648.85193	1043.64709	801.10284	1691.55774	1010.05273	798.73938	1683.15759	1027.62805	725.30353	1311.77319	1077.84009	945.85852	1548.62634	1060.85498	948.67346	1351.81445	912.52521	973.32117	1499.34253	902.93207	977.24866	1280.51917	1012.67780	643.47589	1326.07251	1010.47388	466.90225	1327.98865	957.08478	279.18936	1375.71436	934.68170	71.85141	1412.85742	895.08771	38.00721	1386.41406	1087.22949	35.65406	1600.79211	1062.45898	657.99078	1580.43262	1124.74756	488.21442	1582.44897	1028.05359	321.27390	1540.25403	930.33124	128.21405	1485.23743	880.99268	108.89867	1535.92725	1046.13623	48.08356	1411.00635	1060.37878	1685.44763															 
420	4.190	1366.44592	1136.86584	1608.60840	1499.49756	1131.56897	1619.64233	1365.71997	1002.93884	1590.64185	1496.21753	1002.02905	1600.04431	1423.34827	948.40472	1427.38562	1417.01965	912.53870	1110.78003	1433.07227	1065.64526	1346.79297	1430.13330	1109.25635	1182.98792	1512.33118	882.95135	1248.45776	1275.14685	1034.72485	1384.90771	1198.79382	1050.77856	1191.22852	1184.90173	1075.24158	1071.03052	1187.37988	1121.22876	949.10675	1218.66223	1152.95642	834.80042	1164.56323	1138.89197	838.53046	1175.02478	1166.87024	759.08514	1588.88818	1007.71570	1369.93030	1661.10156	999.26038	1146.68884	1675.62622	1010.44727	1034.82849	1680.87756	1021.57074	898.22089	1648.31409	1049.04797	800.72559	1691.04749	1015.38574	798.10986	1682.44055	1033.27026	724.72083	1310.84204	1082.90686	945.17084	1547.90479	1067.21765	948.61481	1351.61792	918.38776	972.96057	1499.17554	909.07135	976.88141	1280.53442	1017.16205	643.22742	1325.72607	1013.24957	466.47305	1328.05371	958.32330	279.19876	1375.68701	934.71082	71.97242	1413.34216	895.53137	37.90350	1386.31738	1087.23279	35.58926	1600.43152	1071.20715	658.38751	1578.90662	1134.42847	489.03128	1581.35376	1043.56555	318.69470	1539.27271	953.35242	121.76991	1484.06384	905.18628	100.23016	1533.93591	1072.45813	46.94202	1411.44373	1065.79089	1685.30652															 
421	4.200	1366.50256	1142.52930	1608.63440	1499.55957	1137.25916	1619.48047	1365.86182	1008.61041	1590.17102	1496.34363	1007.78882	1599.41919	1423.17517	954.69055	1427.17847	1416.51831	918.27789	1110.24084	1432.82861	1071.86023	1346.40479	1429.56055	1115.43457	1182.56750	1511.55591	888.86133	1247.83594	1274.97253	1041.16443	1384.82190	1198.36646	1058.50464	1191.69836	1183.98425	1084.19360	1071.65613	1186.63696	1132.27637	950.68298	1218.21497	1166.13220	837.07092	1164.19836	1151.73938	840.29077	1174.94763	1181.14063	761.42242	1588.68469	1013.55432	1369.13489	1660.86414	1004.28418	1145.98132	1675.35815	1015.26880	1034.04895	1680.46729	1026.79431	897.55896	1647.65503	1054.61926	800.24359	1690.41321	1020.89191	797.39111	1681.82056	1039.29187	724.27209	1310.12561	1088.34595	944.59967	1547.25098	1073.62537	948.40045	1351.11841	924.07770	972.34259	1499.14575	915.21100	976.47565	1280.33582	1021.11829	642.85547	1325.56360	1016.10791	466.07507	1327.87439	959.78809	279.24661	1375.72693	934.78107	72.08169	1413.41321	895.48376	38.16104	1386.26770	1087.27161	35.50393	1600.08459	1079.60339	658.57996	1577.53992	1143.74597	489.65964	1580.20740	1058.85437	316.08041	1538.34485	976.90411	115.59077	1483.43811	929.24884	92.25977	1532.31421	1098.89172	46.09687	1411.54163	1071.20300	1685.00085															 
422	4.210	1366.59387	1148.20251	1608.66162	1499.40979	1142.80798	1619.18884	1366.05505	1014.40485	1589.62622	1496.51819	1013.58685	1598.69458	1423.05798	960.72992	1426.62585	1416.26660	924.16809	1110.10535	1432.67725	1078.08655	1345.96191	1428.95459	1121.52148	1182.03552	1510.90503	894.80267	1247.33789	1274.91479	1047.71790	1384.70789	1197.81702	1066.17456	1192.08582	1183.09351	1093.06250	1072.32642	1185.97131	1143.14368	952.19519	1217.91138	1179.20398	839.41040	1164.12610	1164.38562	841.97461	1174.97900	1195.31934	763.81281	1588.51770	1019.42963	1368.31970	1660.67761	1009.30188	1145.26965	1675.33569	1020.16803	1033.39380	1680.15405	1032.25757	897.03931	1646.98828	1060.30859	799.74329	1689.61914	1026.66675	796.64337	1681.12146	1045.56018	723.78271	1309.46643	1093.81116	944.01385	1546.67053	1079.99390	948.01544	1351.42578	929.46533	972.00128	1499.24194	921.40039	975.95917	1280.22290	1025.13049	642.49396	1325.23096	1018.87384	465.75488	1327.66553	961.15143	279.28726	1375.71497	934.86206	72.32411	1413.44946	895.52643	38.35965	1386.35254	1087.50769	35.44255	1599.88342	1087.64014	658.48846	1576.19324	1152.69202	490.06335	1579.33936	1073.99182	313.63123	1537.28308	1000.44043	109.59934	1482.57971	953.94836	84.35335	1530.84924	1125.26843	45.54213	1410.68298	1076.67200	1684.27832															 
423	4.220	1366.50281	1153.66663	1608.54480	1499.79529	1148.71057	1619.06738	1366.21204	1020.11877	1588.99536	1496.73328	1019.37463	1597.86719	1422.96680	966.98547	1426.26575	1415.26233	929.39136	1110.50049	1432.50244	1084.32080	1345.44116	1428.38940	1127.53259	1181.44385	1510.22827	900.79138	1246.70215	1274.85461	1054.23755	1384.50781	1197.40527	1073.84424	1192.36414	1182.37585	1101.85474	1072.99695	1185.65210	1154.07275	953.75720	1217.75281	1192.11597	841.79626	1163.96936	1176.94739	843.82391	1175.01599	1209.43445	766.28076	1588.35046	1025.30090	1367.49158	1660.39929	1014.39569	1144.64038	1675.01196	1025.21838	1032.60461	1679.69470	1037.67822	896.32709	1646.27686	1066.13306	799.23853	1689.02454	1032.45349	795.96057	1680.51526	1052.02319	723.34412	1308.86414	1099.29333	943.47675	1546.12036	1086.45422	947.49768	1351.82080	935.79767	971.45996	1499.41809	927.60095	975.41058	1280.10754	1029.18738	642.19147	1324.92688	1021.73828	465.64926	1327.53528	962.30640	279.45160	1375.50574	934.86859	72.49147	1413.76880	895.20056	38.69268	1386.04041	1087.51355	35.52775	1599.71143	1095.34534	658.24597	1574.99255	1161.33594	490.29376	1578.11609	1089.08069	311.09802	1536.39685	1024.38452	104.15617	1481.61560	978.90936	76.89733	1529.88416	1151.81909	45.45102	1411.93518	1081.83862	1684.19531															 
